<?xml version="1.0" encoding="UTF-8"?>
<svg width="500" height="272" version="1.1" viewBox="0 0 500 272" xmlns="http://www.w3.org/2000/svg">
<g transform="matrix(1.1801 0 0 1.1801 -5.6288e-6 .29078)">
<path d="m35.801 30.301-35.801 168.7h52l20.301-94.9h2.6992l2.1992 94.9h38l42.9-94.9h2.7012l-20.301 94.9h53.6l36.1-168.7h-77.199l-35.6 79.199h-2.2012l-2-79.199zm206.8 0-35.799 168.7h56.398l11-51.199h29.201c12.1 0 21.899-1.4 29.299-4s13.302-6.3012 17.602-11.201a52.6 52.6 0 0 0 10.1-17.799c2.3-7 4.5-14.701 6.5-23.201 1.1-5.4 1.9992-10.4 2.6992-15.1a101 101 0 0 0 1-12.801c0-7.5-1.3992-13.799-4.1992-18.699s-7.7004-8.6-14.4-11-16.3-3.6992-28.5-3.6992zm48 40h7.5996a56.3 56.3 0 0 1 7.9004 0.39844 6.6 6.6 0 0 1 4.3008 1.8008c0.9 1 1.2988 2.4996 1.2988 4.5996a24.7 24.7 0 0 1-0.5 5c-0.3 1.9-0.69922 4.2996-1.1992 7.0996-1 4.4-1.8992 7.8008-2.6992 10.301a13.8 13.8 0 0 1-3.2012 5.5 9.3 9.3 0 0 1-5.2988 2.3008 65.8 65.8 0 0 1-8.7012 0.5h-7.5996z"/>
<path d="m374.8 230 48.9-230h-46.3l-4.2 19.8h26.5l-40.5 190.4h-26.5l-4.2 19.8z" fill="#ff6700"/>
</g>
</svg>
