<svg xmlns="http://www.w3.org/2000/svg" viewBox="0 0 110 111">
  <path d="M92.179 73.143c10.08-4.374 15.215-13.313 15.215-24.724V32.634c0-15.785-10.46-28.148-31-28.148H16.866c-1.141 0-1.902.761-1.902 1.902v18.638c0 .951.761 1.902 1.902 1.902h52.491c7.988 0 11.031 3.804 11.031 10.65v6.466c0 6.657-3.043 11.031-11.031 11.031H42.351V38.529c0-1.141-.761-2.092-1.902-2.092H16.866c-1.141 0-1.902.951-1.902 2.092v70.369c0 .951.761 1.902 1.902 1.902h23.583c1.141 0 1.902-.951 1.902-1.902V76.757h22.442l15.215 32.902c.38.761.951 1.141 1.712 1.141h24.724c1.331 0 2.282-1.521 1.712-2.663z"/>
</svg>
